<?xml version="1.0" encoding="utf-8"?>
<!-- Generator: Adobe Illustrator 22.1.0, SVG Export Plug-In . SVG Version: 6.00 Build 0)  -->
<svg version="1.1" id="Layer_1" xmlns="http://www.w3.org/2000/svg" xmlns:xlink="http://www.w3.org/1999/xlink" x="0px" y="0px"
	 viewBox="0 0 334.3 334.3" style="enable-background:new 0 0 334.3 334.3;" xml:space="preserve">
<style type="text/css">
	.st0{fill:#99258E;}
	.st1{fill:#FFFFFF;}
</style>
<title>partner</title>
<g>
	<path class="st0" d="M334.3,167.1c0,92.3-74.8,167.1-167.1,167.1C74.8,334.3,0,259.4,0,167.1C0,74.8,74.8,0,167.1,0
		C259.5,0,334.3,74.8,334.3,167.1"/>
	<path class="st1" d="M249.2,242.7v-3.2c-2.4-0.6-5.5-1.2-9.5-1.2c-5.9,0-9.2,2.6-9.2,6.5v0.1c0,4,3.8,6.4,8.1,6.4
		C244.3,251.3,249.2,247.8,249.2,242.7 M227.6,245v-0.1c0-5.8,5-9.1,12.3-9.1c3.9,0,6.6,0.5,9.3,1.2v-1.2c0-5.6-3.5-8.6-9.2-8.6
		c-3.4,0-6.2,0.9-8.8,2.3l-1-2.3c3.1-1.4,6.1-2.4,10-2.4c3.8,0,6.8,1,8.8,3.1c1.9,1.9,2.9,4.4,2.9,7.9v17.5h-2.6v-4.7
		c-1.9,2.7-5.4,5.3-10.7,5.3C233.2,253.8,227.6,250.9,227.6,245 M260.3,253.2h2.7v-28h-2.7V253.2z M260,217.8h3.4v-3.7H260V217.8z
		 M272,225.1h2.7v7.9c2.2-5,6.9-8.6,12.4-8.4v3h-0.3c-6.5,0-12.1,4.9-12.1,14v11.5H272V225.1z"/>
	<g>
		<path class="st1" d="M77.6,172.4c0,0-1.9-0.2-2.4-0.3c-0.5-0.1-1.5-0.4-1.6-0.9c0,0,0,0,0,0c0,0,0,0,0,0c0,0,0,0,0,0c0,0,0,0,0,0
			c0-0.5,1.1-0.8,1.6-0.9c0.5-0.1,2.4-0.3,2.4-0.3l39.9-1.8l8.9-29.2c0,0,0-0.1,0-0.2c0.1-0.4,0.2-0.7,0.2-1.1
			c0-2.3-1.8-4.1-4.1-4.1h-19.9c-1.8,0-3.4,1.2-3.9,2.9c0,0.1-0.1,0.3-0.1,0.4l-6.9,26.4l-7.9-26.5l-0.3-0.9
			c-0.6-1.4-2.1-2.5-3.7-2.5H61.6c-1.8,0-3.4,1.2-3.9,2.9l-8,26.8l-6.6-26.1c0-0.1-0.1-0.3-0.1-0.4c-0.5-1.7-2.1-2.9-3.9-2.9H18.8
			c-2.3,0-4.1,1.8-4.1,4.1c0,0.4,0.1,0.8,0.2,1.2l19.5,65.2l0.1,0.3c0.6,1.6,2.1,2.8,3.9,2.8h19.2c1.8,0,3.4-1.2,3.9-2.9l9.1-28.4
			l8.8,28.2c0,0.1,0,0.1,0,0.1l0.1,0.2c0,0.1,0,0.1,0.1,0.2c0.6,1.5,2.1,2.5,3.8,2.5h19.4c1.7,0,3.2-1.1,3.8-2.6l0.2-0.6
			c0,0,0,0,0-0.1l9.1-29.9L77.6,172.4z"/>
		<path class="st1" d="M154.8,166.6c1.1-4.5,4.3-8.1,8.5-9.3c0.2-2,1.2-14,1.6-14.8c0.3-0.8,1.1-0.9,1.2-0.9c0.1,0,0.1,0,0.1,0
			s0,0,0.1,0c0.1,0,0.9,0,1.2,0.9c0.3,0.8,1.4,12.8,1.6,14.8c4.1,1.2,7.4,4.7,8.5,9.3l29.7,1.3c0-0.2,0-0.4,0-0.4
			c-1.2-19.6-17.8-35.7-40.8-35.7c-23.2,0-39.9,16.4-41.1,36L154.8,166.6z"/>
		<path class="st1" d="M176.9,175.4c-1.9,4.5-5.9,7.6-10.7,7.6c-4.8,0-8.8-3.1-10.7-7.6l-30.1-1.1c2,18.8,18.3,34,40.7,34
			c22.4,0,38.8-15.3,40.9-34L176.9,175.4z"/>
		<path class="st1" d="M313.8,133.6h-19.9c-1.8,0-3.4,1.2-3.9,2.9c0,0.1-0.1,0.3-0.1,0.4l-6.9,26.4l-7.9-26.5l-0.3-0.9
			c-0.6-1.5-2-2.5-3.7-2.5h-18.1c-1.8,0-3.4,1.2-3.9,2.9l-7.9,26.8l-6.6-26.2c0-0.1-0.1-0.3-0.1-0.4c-0.5-1.7-2.1-2.9-3.9-2.9h-20.3
			c-2.3,0-4.1,1.8-4.1,4.1c0,0.4,0.1,0.8,0.2,1.2l8.8,29.3l39.8,1.8c0,0,1.9,0.2,2.4,0.3c0.5,0.1,1.5,0.4,1.6,0.9c0,0,0,0,0,0
			c0,0,0,0,0,0c0,0,0,0,0,0c0,0,0,0,0,0c0,0.5-1.1,0.8-1.6,0.9c-0.5,0.1-2.4,0.3-2.4,0.3l-38.1,1.5l9,30.2l0.1,0.3
			c0.6,1.6,2.1,2.8,3.9,2.8h19.2c1.8,0,3.4-1.2,3.9-2.9l9.1-28.4l8.8,28.2c0,0.1,0,0.1,0.1,0.1l0.1,0.2c0,0.1,0,0.1,0,0.2
			c0.6,1.5,2.1,2.5,3.8,2.5H294c1.7,0,3.2-1.1,3.8-2.6l0.2-0.6c0,0,0,0,0-0.1l19.7-64.8c0,0,0-0.1,0-0.2c0.1-0.4,0.2-0.7,0.2-1.1
			C317.9,135.4,316.1,133.6,313.8,133.6z"/>
	</g>
</g>
</svg>
